<svg width="20" height="18" viewBox="0 0 20 18" fill="none" xmlns="http://www.w3.org/2000/svg">
<path d="M10.3334 17.25C10.3334 17.25 0.958374 12 0.958374 5.62501C0.958565 4.49826 1.34899 3.40635 2.06326 2.53493C2.77753 1.66351 3.77157 1.06636 4.87636 0.845015C5.98116 0.623669 7.12851 0.791788 8.12336 1.32079C9.11821 1.84979 9.89914 2.70702 10.3334 3.74673L10.3334 3.74673C10.7676 2.70702 11.5485 1.84979 12.5434 1.32079C13.5382 0.79179 14.6856 0.62367 15.7904 0.845015C16.8952 1.06636 17.8892 1.66351 18.6035 2.53493C19.3178 3.40635 19.7082 4.49826 19.7084 5.62501C19.7084 12 10.3334 17.25 10.3334 17.25Z" fill="#DC5683"/>
</svg>
